<?xml version="1.0" encoding="UTF-8"?>
<svg version="1.1" xmlns="http://www.w3.org/2000/svg" width="500" height="500">
<path d="M0 0 C165 0 330 0 500 0 C500 165 500 330 500 500 C335 500 170 500 0 500 C0 335 0 170 0 0 Z " fill="#FEFEFE" transform="translate(0,0)"/>
<path d="M0 0 C1.37718337 0.02435289 2.75437588 0.04819369 4.13157654 0.07154846 C7.72696482 0.133876 11.32218776 0.2030831 14.91741943 0.27380371 C18.59786559 0.34495595 22.2784274 0.40949061 25.95898438 0.47460938 C33.15898512 0.60295833 40.35880278 0.73919983 47.55859375 0.87890625 C47.55859375 7.80890625 47.55859375 14.73890625 47.55859375 21.87890625 C46.23859375 21.87890625 44.91859375 21.87890625 43.55859375 21.87890625 C43.42324219 20.99847656 43.28789062 20.11804688 43.1484375 19.2109375 C41.96396067 11.44154842 41.96396067 11.44154842 37.18359375 5.62890625 C34.2157899 3.8671962 32.16557047 3.60030159 28.55859375 2.87890625 C28.88859375 19.37890625 29.21859375 35.87890625 29.55859375 52.87890625 C31.86859375 52.87890625 34.17859375 52.87890625 36.55859375 52.87890625 C38.99609375 53.37890625 38.99609375 53.37890625 40.55859375 53.87890625 C40.26984375 54.41515625 39.98109375 54.95140625 39.68359375 55.50390625 C36.66645011 61.8734317 36.02890054 67.92331636 35.55859375 74.87890625 C27.40868929 76.39516755 18.65962324 76.77617338 10.55859375 74.87890625 C10.55859375 73.55890625 10.55859375 72.23890625 10.55859375 70.87890625 C9.89859375 70.87890625 9.23859375 70.87890625 8.55859375 70.87890625 C8.55859375 72.19890625 8.55859375 73.51890625 8.55859375 74.87890625 C7.23859375 74.87890625 5.91859375 74.87890625 4.55859375 74.87890625 C4.55859375 75.53890625 4.55859375 76.19890625 4.55859375 76.87890625 C-1.31640625 76.00390625 -1.31640625 76.00390625 -2.44140625 74.87890625 C-4.77438058 74.83797688 -7.1084585 74.83648902 -9.44140625 74.87890625 C-9.44140625 72.23890625 -9.44140625 69.59890625 -9.44140625 66.87890625 C-10.76140625 66.87890625 -12.08140625 66.87890625 -13.44140625 66.87890625 C-13.44140625 69.51890625 -13.44140625 72.15890625 -13.44140625 74.87890625 C-14.43140625 74.87890625 -15.42140625 74.87890625 -16.44140625 74.87890625 C-16.77140625 72.89890625 -17.10140625 70.91890625 -17.44140625 68.87890625 C-20.41140625 68.38390625 -20.41140625 68.38390625 -23.44140625 67.87890625 C-23.44140625 70.18890625 -23.44140625 72.49890625 -23.44140625 74.87890625 C-24.43140625 74.87890625 -25.42140625 74.87890625 -26.44140625 74.87890625 C-26.77140625 73.22890625 -27.10140625 71.57890625 -27.44140625 69.87890625 C-28.10140625 71.52890625 -28.76140625 73.17890625 -29.44140625 74.87890625 C-32.41140625 74.38390625 -32.41140625 74.38390625 -35.44140625 73.87890625 C-35.44140625 72.55890625 -35.44140625 71.23890625 -35.44140625 69.87890625 C-36.10140625 69.87890625 -36.76140625 69.87890625 -37.44140625 69.87890625 C-37.77140625 71.52890625 -38.10140625 73.17890625 -38.44140625 74.87890625 C-46.03140625 74.87890625 -53.62140625 74.87890625 -61.44140625 74.87890625 C-61.93640625 72.40390625 -61.93640625 72.40390625 -62.44140625 69.87890625 C-64.91640625 70.37390625 -64.91640625 70.37390625 -67.44140625 70.87890625 C-67.44140625 69.88890625 -67.44140625 68.89890625 -67.44140625 67.87890625 C-64.44140625 65.69140625 -64.44140625 65.69140625 -61.44140625 63.87890625 C-60.12140625 64.53890625 -58.80140625 65.19890625 -57.44140625 65.87890625 C-57.44140625 63.56890625 -57.44140625 61.25890625 -57.44140625 58.87890625 C-60.08140625 59.53890625 -62.72140625 60.19890625 -65.44140625 60.87890625 C-65.44140625 59.88890625 -65.44140625 58.89890625 -65.44140625 57.87890625 C-67.75140625 57.87890625 -70.06140625 57.87890625 -72.44140625 57.87890625 C-72.44140625 56.88890625 -72.44140625 55.89890625 -72.44140625 54.87890625 C-69.96640625 54.38390625 -69.96640625 54.38390625 -67.44140625 53.87890625 C-67.44140625 37.37890625 -67.44140625 20.87890625 -67.44140625 3.87890625 C-69.09140625 3.54890625 -70.74140625 3.21890625 -72.44140625 2.87890625 C-72.44140625 2.54890625 -72.44140625 2.21890625 -72.44140625 1.87890625 C-66.17140625 1.87890625 -59.90140625 1.87890625 -53.44140625 1.87890625 C-50.41768883 8.38448009 -47.54833083 14.93422804 -44.81640625 21.56640625 C-44.3831604 22.61622681 -44.3831604 22.61622681 -43.94116211 23.68725586 C-42.01660154 28.38578874 -40.20486583 33.11756537 -38.44140625 37.87890625 C-38.10109375 36.9559375 -37.76078125 36.03296875 -37.41015625 35.08203125 C-34.41241274 26.99663471 -31.31857291 18.95313238 -28.12890625 10.94140625 C-27.77957031 10.05936523 -27.43023437 9.17732422 -27.0703125 8.26855469 C-26.74289063 7.45032227 -26.41546875 6.63208984 -26.078125 5.7890625 C-25.78639404 5.05824463 -25.49466309 4.32742676 -25.1940918 3.57446289 C-24.44140625 1.87890625 -24.44140625 1.87890625 -23.44140625 0.87890625 C-15.61716136 -0.33979909 -7.89946736 -0.1630594 0 0 Z " fill="#FDFCF2" transform="translate(257.44140625,198.12109375)"/>
<path d="M0 0 C6.27 0 12.54 0 19 0 C22.02371742 6.50557384 24.89307542 13.05532179 27.625 19.6875 C28.05824585 20.73732056 28.05824585 20.73732056 28.50024414 21.80834961 C30.42480471 26.50688249 32.23654042 31.23865912 34 36 C34.3403125 35.07703125 34.680625 34.1540625 35.03125 33.203125 C39.16431371 22.05804499 43.55050219 11.02210625 48 0 C53.94 0 59.88 0 66 0 C63 2 63 2 61 3 C60.67 19.17 60.34 35.34 60 52 C62.97 52.495 62.97 52.495 66 53 C66 53.33 66 53.66 66 54 C58.08 54 50.16 54 42 54 C43.32 53.34 44.64 52.68 46 52 C47.45022944 50.77847338 47.45022944 50.77847338 47.11352539 47.12280273 C47.11336621 45.39305833 47.10766849 43.66330919 47.09765625 41.93359375 C47.0962413 41.02497086 47.09482635 40.11634796 47.09336853 39.18019104 C47.08775193 36.26592779 47.07519665 33.35174019 47.0625 30.4375 C47.05748714 28.46679798 47.05292386 26.49609476 47.04882812 24.52539062 C47.03777711 19.68356441 47.02050138 14.84179505 47 10 C45.89907904 12.8226606 44.79893588 15.6456204 43.69921875 18.46875 C43.39205933 19.25604492 43.0848999 20.04333984 42.76843262 20.85449219 C40.74341952 26.05518502 38.75970726 31.26970197 36.8125 36.5 C34.62645808 42.3684324 32.36903181 48.20283982 30 54 C27 53 27 53 25.34375 49.6953125 C24.71784125 48.17649298 24.10425013 46.65256547 23.5 45.125 C23.16613281 44.30668701 22.83226562 43.48837402 22.48828125 42.64526367 C21.74003931 40.80791778 20.99687499 38.96849886 20.2578125 37.12744141 C18.86184116 33.65648007 17.44813983 30.19292417 16.03125 26.73046875 C13.34341403 20.15800112 10.66845159 13.58036029 8 7 C7.97529951 12.78409513 7.95713977 18.56815962 7.94506836 24.35229492 C7.9400365 26.32039932 7.93321042 28.28849997 7.92456055 30.2565918 C7.91244483 33.08383101 7.90676024 35.91102084 7.90234375 38.73828125 C7.89718246 39.61962234 7.89202118 40.50096344 7.88670349 41.40901184 C7.88662796 42.22963608 7.88655243 43.05026031 7.88647461 43.89575195 C7.884254 44.61745071 7.88203339 45.33914948 7.87974548 46.0827179 C7.93174401 48.22226801 7.93174401 48.22226801 9 51 C11.50447516 52.21869929 11.50447516 52.21869929 14 53 C14 53.33 14 53.66 14 54 C9.38 54 4.76 54 0 54 C0.66 53.34 1.32 52.68 2 52 C2.99 52 3.98 52 5 52 C5 35.5 5 19 5 2 C3.35 1.67 1.7 1.34 0 1 C0 0.67 0 0.34 0 0 Z " fill="#F7BC14" transform="translate(185,200)"/>
<path d="M0 0 C3.01793543 1.50896771 3.31795893 3.75294844 4.57421875 6.84375 C5.0738916 8.06352539 5.57356445 9.28330078 6.08837891 10.54003906 C6.34983704 11.18751099 6.61129517 11.83498291 6.88067627 12.5020752 C7.68686976 14.49843934 8.50123954 16.49128372 9.31787109 18.48339844 C11.65973392 24.20403165 13.97633578 29.93468104 16.27734375 35.671875 C16.75651245 36.85813477 16.75651245 36.85813477 17.24536133 38.06835938 C17.81813284 39.48892176 18.38470785 40.91200343 18.9440918 42.33789062 C20.18115872 45.83434065 20.18115872 45.83434065 23 48 C23.33 47.01 23.66 46.02 24 45 C23.75 47.875 23.75 47.875 23 51 C20.9375 52.375 20.9375 52.375 19 53 C19 53.33 19 53.66 19 54 C21.31 54 23.62 54 26 54 C26 56.31 26 58.62 26 61 C27.32 61 28.64 61 30 61 C30 59.02 30 57.04 30 55 C32.97 55.495 32.97 55.495 36 56 C36 59.63 36 63.26 36 67 C33.03 66.505 33.03 66.505 30 66 C30 64.68 30 63.36 30 62 C29.34 62 28.68 62 28 62 C27.67 63.65 27.34 65.3 27 67 C19.41 67 11.82 67 4 67 C3.505 64.525 3.505 64.525 3 62 C0.525 62.495 0.525 62.495 -2 63 C-2 62.01 -2 61.02 -2 60 C1 57.8125 1 57.8125 4 56 C5.32 56.66 6.64 57.32 8 58 C8 55.69 8 53.38 8 51 C5.36 51.66 2.72 52.32 0 53 C0 52.01 0 51.02 0 50 C-2.31 50 -4.62 50 -7 50 C-7 49.34 -7 48.68 -7 48 C-1.555 47.505 -1.555 47.505 4 47 C3.01 46.34 2.02 45.68 1 45 C0.08138216 42.24414648 -0.12204322 40.6403931 -0.11352539 37.80395508 C-0.11344986 36.96331009 -0.11337433 36.1226651 -0.11329651 35.25654602 C-0.10813522 34.35333115 -0.10297394 33.45011627 -0.09765625 32.51953125 C-0.0962413 31.59154221 -0.09482635 30.66355316 -0.09336853 29.70744324 C-0.08776937 26.74242942 -0.07521704 23.77749101 -0.0625 20.8125 C-0.05748489 18.80273547 -0.052922 16.79296975 -0.04882812 14.78320312 C-0.03780021 9.85543968 -0.02053617 4.92773263 0 0 Z " fill="#FCFCF8" transform="translate(192,206)"/>
<path d="M0 0 C15.84 0 31.68 0 48 0 C48 6.27 48 12.54 48 19 C47.34 19 46.68 19 46 19 C45.79246094 18.19175781 45.58492188 17.38351563 45.37109375 16.55078125 C43.42615078 9.27040129 43.42615078 9.27040129 38.5625 3.8125 C35.4879911 2.24827617 33.32802689 1.56513664 30 1 C30.11754271 7.63872287 30.24237526 14.27727975 30.37231445 20.91577148 C30.4156678 23.17485433 30.45734258 25.43397003 30.49731445 27.69311523 C30.55500713 30.93743804 30.61870469 34.1815954 30.68359375 37.42578125 C30.70030624 38.43836502 30.71701874 39.45094879 30.73423767 40.49421692 C30.75418289 41.43496567 30.77412811 42.37571442 30.79467773 43.3449707 C30.81799416 44.58740288 30.81799416 44.58740288 30.84178162 45.85493469 C30.92540723 48.18553247 30.92540723 48.18553247 32 51 C35.00847418 52.22520264 35.00847418 52.22520264 38 53 C38 53.33 38 53.66 38 54 C28.76 54 19.52 54 10 54 C12 53 14 52 16 51 C16.9465414 48.16037579 17.14994224 46.29593471 17.20532227 43.3449707 C17.22526749 42.40422195 17.24521271 41.46347321 17.26576233 40.49421692 C17.28247482 39.48163315 17.29918732 38.46904938 17.31640625 37.42578125 C17.33718735 36.38681198 17.35796844 35.34784271 17.37937927 34.27738953 C17.44480656 30.95582747 17.50372821 27.63418584 17.5625 24.3125 C17.60569169 22.0618407 17.64930619 19.81118948 17.69335938 17.56054688 C17.80048098 12.0404489 17.90226016 6.52027163 18 1 C15.36 1.33 12.72 1.66 10 2 C10 2.66 10 3.32 10 4 C8.68 4.33 7.36 4.66 6 5 C5.87882812 5.59167969 5.75765625 6.18335938 5.6328125 6.79296875 C4.73255357 11.03803585 3.79543379 15.02439661 2 19 C1.34 19 0.68 19 0 19 C0 12.73 0 6.46 0 0 Z " fill="#F9BD0B" transform="translate(256,200)"/>
<path d="M0 0 C1.05960938 0.00676758 1.05960938 0.00676758 2.140625 0.01367188 C3.88545275 0.02546125 5.630237 0.04339676 7.375 0.0625 C4.375 2.0625 4.375 2.0625 2.375 3.0625 C2.375 19.5625 2.375 36.0625 2.375 53.0625 C-1.585 53.0625 -5.545 53.0625 -9.625 53.0625 C-9.79248953 46.1392198 -9.9530625 39.21582718 -10.10717773 32.29223633 C-10.16060512 29.93607242 -10.21593504 27.57995087 -10.27319336 25.22387695 C-10.35508339 21.84075046 -10.43016966 18.45753154 -10.50390625 15.07421875 C-10.53094131 14.01788742 -10.55797638 12.96155609 -10.58583069 11.87321472 C-10.60592697 10.89242447 -10.62602325 9.91163422 -10.64672852 8.90112305 C-10.66671402 8.03730515 -10.68669952 7.17348724 -10.70729065 6.28349304 C-10.625 4.0625 -10.625 4.0625 -9.625 1.0625 C-6.55966836 -0.47016582 -3.35745728 -0.04026471 0 0 Z " fill="#F6BC13" transform="translate(243.625,199.9375)"/>
<path d="M0 0 C15.84 0 31.68 0 48 0 C48 6.27 48 12.54 48 19 C47.34 19 46.68 19 46 19 C45.79246094 18.19175781 45.58492188 17.38351563 45.37109375 16.55078125 C43.42615078 9.27040129 43.42615078 9.27040129 38.5625 3.8125 C35.4879911 2.24827617 33.32802689 1.56513664 30 1 C30.11754271 7.63872287 30.24237526 14.27727975 30.37231445 20.91577148 C30.4156678 23.17485433 30.45734258 25.43397003 30.49731445 27.69311523 C30.55500713 30.93743804 30.61870469 34.1815954 30.68359375 37.42578125 C30.70030624 38.43836502 30.71701874 39.45094879 30.73423767 40.49421692 C30.75418289 41.43496567 30.77412811 42.37571442 30.79467773 43.3449707 C30.81799416 44.58740288 30.81799416 44.58740288 30.84178162 45.85493469 C30.92540723 48.18553247 30.92540723 48.18553247 32 51 C35.00847418 52.22520264 35.00847418 52.22520264 38 53 C38 53.33 38 53.66 38 54 C28.76 54 19.52 54 10 54 C12 53 14 52 16 51 C16.9465414 48.16037579 17.14994224 46.29593471 17.20532227 43.3449707 C17.22526749 42.40422195 17.24521271 41.46347321 17.26576233 40.49421692 C17.28247482 39.48163315 17.29918732 38.46904938 17.31640625 37.42578125 C17.33718735 36.38681198 17.35796844 35.34784271 17.37937927 34.27738953 C17.44480656 30.95582747 17.50372821 27.63418584 17.5625 24.3125 C17.60569169 22.0618407 17.64930619 19.81118948 17.69335938 17.56054688 C17.80048098 12.0404489 17.90226016 6.52027163 18 1 C15.36 1.33 12.72 1.66 10 2 C10 2.66 10 3.32 10 4 C8.68 4.33 7.36 4.66 6 5 C5.87882812 5.59167969 5.75765625 6.18335938 5.6328125 6.79296875 C4.73255357 11.03803585 3.79543379 15.02439661 2 19 C1.34 19 0.68 19 0 19 C0 12.73 0 6.46 0 0 Z M19 1 C18.67 18.16 18.34 35.32 18 53 C21.96 53 25.92 53 30 53 C29.67 35.84 29.34 18.68 29 1 C25.7 1 22.4 1 19 1 Z " fill="#E8BE3B" transform="translate(256,200)"/>
<path d="M0 0 C6.31029748 0.54299822 12.6677003 0.3276966 18.99609375 0.2578125 C18.66609375 1.2478125 18.33609375 2.2378125 17.99609375 3.2578125 C17.00609375 3.2578125 16.01609375 3.2578125 14.99609375 3.2578125 C14.99609375 4.9078125 14.99609375 6.5578125 14.99609375 8.2578125 C16.64609375 8.2578125 18.29609375 8.2578125 19.99609375 8.2578125 C19.99609375 6.2778125 19.99609375 4.2978125 19.99609375 2.2578125 C23.82598481 0.45551082 26.77731183 0.06159009 30.99609375 0.2578125 C31.49109375 3.2278125 31.49109375 3.2278125 31.99609375 6.2578125 C32.65609375 4.6078125 33.31609375 2.9578125 33.99609375 1.2578125 C34.32609375 1.2578125 34.65609375 1.2578125 34.99609375 1.2578125 C35.12109375 7.8828125 35.12109375 7.8828125 33.99609375 11.2578125 C33.00609375 11.2578125 32.01609375 11.2578125 30.99609375 11.2578125 C30.99609375 9.9378125 30.99609375 8.6178125 30.99609375 7.2578125 C30.33609375 7.2578125 29.67609375 7.2578125 28.99609375 7.2578125 C28.99609375 8.5778125 28.99609375 9.8978125 28.99609375 11.2578125 C27.67609375 11.2578125 26.35609375 11.2578125 24.99609375 11.2578125 C24.99609375 11.9178125 24.99609375 12.5778125 24.99609375 13.2578125 C19.12109375 12.3828125 19.12109375 12.3828125 17.99609375 11.2578125 C15.66311942 11.21688313 13.3290415 11.21539527 10.99609375 11.2578125 C10.99609375 8.6178125 10.99609375 5.9778125 10.99609375 3.2578125 C9.67609375 3.2578125 8.35609375 3.2578125 6.99609375 3.2578125 C6.99609375 5.8978125 6.99609375 8.5378125 6.99609375 11.2578125 C6.00609375 11.2578125 5.01609375 11.2578125 3.99609375 11.2578125 C3.66609375 9.2778125 3.33609375 7.2978125 2.99609375 5.2578125 C0.02609375 4.7628125 0.02609375 4.7628125 -3.00390625 4.2578125 C-3.00390625 6.5678125 -3.00390625 8.8778125 -3.00390625 11.2578125 C-3.99390625 11.2578125 -4.98390625 11.2578125 -6.00390625 11.2578125 C-6.00390625 8.2878125 -6.00390625 5.3178125 -6.00390625 2.2578125 C-6.66390625 2.2578125 -7.32390625 2.2578125 -8.00390625 2.2578125 C-8.00390625 1.5978125 -8.00390625 0.9378125 -8.00390625 0.2578125 C-5.21416347 -1.13705889 -3.0043044 -0.38478776 0 0 Z " fill="#F6EDC1" transform="translate(237.00390625,261.7421875)"/>
<path d="M0 0 C0.99 0 1.98 0 3 0 C3.66 1.65 4.32 3.3 5 5 C5.33 3.35 5.66 1.7 6 0 C7.98 0 9.96 0 12 0 C12 3.3 12 6.6 12 10 C7.02936879 10.91297308 2.97063121 10.91297308 -2 10 C-2.33 9.01 -2.66 8.02 -3 7 C-4.32 7 -5.64 7 -7 7 C-7.33 7.66 -7.66 8.32 -8 9 C-7.125 3.25 -7.125 3.25 -6 1 C-5.01 1 -4.02 1 -3 1 C-3 1.99 -3 2.98 -3 4 C-2.01 4 -1.02 4 0 4 C0 2.68 0 1.36 0 0 Z " fill="#F3EAB7" transform="translate(281,263)"/>
<path d="M0 0 C0.99 0.33 1.98 0.66 3 1 C3.6875 3.0625 3.6875 3.0625 4 5 C4.99 3.68 5.98 2.36 7 1 C8.65 1.33 10.3 1.66 12 2 C12.79953138 5.28696233 13.09658936 6.71023192 12 10 C6.03325384 11.32594359 0.07416385 11.0884587 -6 11 C-6 8.03 -6 5.06 -6 2 C-3 3 -3 3 -1 5 C-0.67 3.35 -0.34 1.7 0 0 Z " fill="#F0E4AF" transform="translate(202,262)"/>
<path d="M0 0 C0.99 0.33 1.98 0.66 3 1 C2.34 1 1.68 1 1 1 C1 18.16 1 35.32 1 53 C7.435 52.505 7.435 52.505 14 52 C15.32 52.66 16.64 53.32 18 54 C10.08 54 2.16 54 -6 54 C-4.68 53.34 -3.36 52.68 -2 52 C-0.54977056 50.77847338 -0.54977056 50.77847338 -0.88647461 47.12280273 C-0.88663379 45.39305833 -0.89233151 43.66330919 -0.90234375 41.93359375 C-0.9037587 41.02497086 -0.90517365 40.11634796 -0.90663147 39.18019104 C-0.91224807 36.26592779 -0.92480335 33.35174019 -0.9375 30.4375 C-0.94251286 28.46679798 -0.94707614 26.49609476 -0.95117188 24.52539062 C-0.96222289 19.68356441 -0.97949862 14.84179505 -1 10 C-1.47703369 11.22831543 -1.95406738 12.45663086 -2.44555664 13.72216797 C-3.07957683 15.3538462 -3.71361076 16.9855191 -4.34765625 18.6171875 C-4.66109985 19.42438232 -4.97454346 20.23157715 -5.29748535 21.06323242 C-7.49715104 26.72280391 -9.72295809 32.37103924 -12 38 C-13.04812231 34.82011854 -12.96936652 33.09241924 -11.77734375 29.98046875 C-11.48867432 29.2119458 -11.20000488 28.44342285 -10.90258789 27.65161133 C-10.58410889 26.83845459 -10.26562988 26.02529785 -9.9375 25.1875 C-9.46074829 23.933927 -9.46074829 23.933927 -8.97436523 22.6550293 C-7.99670253 20.09774751 -7.00190556 17.5478726 -6 15 C-5.69481445 14.22301758 -5.38962891 13.44603516 -5.07519531 12.64550781 C-3.40897272 8.41984896 -1.71620866 4.20565419 0 0 Z " fill="#E7C35B" transform="translate(233,200)"/>
<path d="M0 0 C0.05069859 6.62024669 0.08573295 13.24044334 0.10986328 19.86083984 C0.11992253 22.11313752 0.13357146 24.36542214 0.15087891 26.61767578 C0.17513031 29.85452498 0.1864839 33.09120155 0.1953125 36.328125 C0.20563507 37.33554749 0.21595764 38.34296997 0.22659302 39.38092041 C0.22674408 40.32159363 0.22689514 41.26226685 0.22705078 42.23144531 C0.231492 43.05751282 0.23593323 43.88358032 0.24050903 44.73468018 C-0.0277529 47.2614006 -0.65044595 48.85630055 -2 51 C-2.99 51.495 -2.99 51.495 -4 52 C4.25 52 12.5 52 21 52 C21 52.66 21 53.32 21 54 C10.77 54 0.54 54 -10 54 C-10.495 52.515 -10.495 52.515 -11 51 C-8.29120665 49.64560332 -5.99066732 49.93498549 -3 50 C-3 48.68 -3 47.36 -3 46 C-2.34 46 -1.68 46 -1 46 C-1 31.48 -1 16.96 -1 2 C-2.65 2 -4.3 2 -6 2 C-6.33 2.99 -6.66 3.98 -7 5 C-7.99 5 -8.98 5 -10 5 C-10 5.66 -10 6.32 -10 7 C-10.66 7 -11.32 7 -12 7 C-12 6.01 -12 5.02 -12 4 C-10.68 3.67 -9.36 3.34 -8 3 C-8 2.34 -8 1.68 -8 1 C-5.07175348 0.02391783 -3.04386724 -0.08226668 0 0 Z " fill="#FCF0BF" transform="translate(274,201)"/>
<path d="M0 0 C0.33 0.66 0.66 1.32 1 2 C1.99 2 2.98 2 4 2 C3.67 2.66 3.34 3.32 3 4 C2.90065818 7.02730154 2.86020042 10.03111823 2.8671875 13.05859375 C2.86575241 14.40873314 2.86575241 14.40873314 2.86428833 15.78614807 C2.86360714 17.69182403 2.86545719 19.59750231 2.86962891 21.50317383 C2.87497179 24.42209081 2.86968507 27.34085349 2.86328125 30.25976562 C2.86394216 32.10937534 2.8652236 33.95898496 2.8671875 35.80859375 C2.86516327 36.68366074 2.86313904 37.55872772 2.86105347 38.46031189 C2.86420563 39.27448074 2.86735779 40.0886496 2.87060547 40.92749023 C2.87140106 41.64315659 2.87219666 42.35882294 2.87301636 43.09617615 C2.93451239 45.22418799 2.93451239 45.22418799 4 48 C6.50447516 49.21869929 6.50447516 49.21869929 9 50 C9 50.33 9 50.66 9 51 C4.38 51 -0.24 51 -5 51 C-4.34 50.34 -3.68 49.68 -3 49 C-2.01 49 -1.02 49 0 49 C0 32.83 0 16.66 0 0 Z " fill="#EBC44A" transform="translate(190,203)"/>
<path d="M0 0 C3 3.625 3 3.625 3 7 C3.66 7 4.32 7 5 7 C5 8.98 5 10.96 5 13 C4.01 13.495 4.01 13.495 3 14 C2.26924352 16.3140622 1.59861742 18.64828869 1 21 C0.34 21 -0.32 21 -1 21 C-0.85892253 19.54119891 -0.71197585 18.08296449 -0.5625 16.625 C-0.48128906 15.81289062 -0.40007812 15.00078125 -0.31640625 14.1640625 C0 12 0 12 1 10 C0.01 10.99 -0.98 11.98 -2 13 C-5 12 -5 12 -6.1875 9.6875 C-7 7 -7 7 -7 3 C-6.38125 3.165 -5.7625 3.33 -5.125 3.5 C-3.03936614 4.07634644 -3.03936614 4.07634644 -1 4 C-0.67 2.68 -0.34 1.36 0 0 Z " fill="#FABC0B" transform="translate(210,221)"/>
<path d="M0 0 C0.66 0.33 1.32 0.66 2 1 C2.73075648 3.3140622 3.40138258 5.64828869 4 8 C3.01 7.67 2.02 7.34 1 7 C1.01945375 11.60901301 1.07126712 16.21612544 1.15258789 20.82446289 C1.17572882 22.39076369 1.19015448 23.95721922 1.19555664 25.52368164 C1.20487588 27.78108703 1.24592233 30.03607221 1.29296875 32.29296875 C1.2890361 32.98899704 1.28510345 33.68502533 1.28105164 34.40214539 C1.39688429 38.29588625 1.82401637 39.80628816 4.48168945 42.73168945 C5.31273193 43.48023193 6.14377441 44.22877441 7 45 C7.33 46.32 7.66 47.64 8 49 C3.05 49 -1.9 49 -7 49 C-7 48.67 -7 48.34 -7 48 C-1.555 47.505 -1.555 47.505 4 47 C3.01 46.34 2.02 45.68 1 45 C0.08138216 42.24414648 -0.12204322 40.6403931 -0.11352539 37.80395508 C-0.11344986 36.96331009 -0.11337433 36.1226651 -0.11329651 35.25654602 C-0.10813522 34.35333115 -0.10297394 33.45011627 -0.09765625 32.51953125 C-0.0962413 31.59154221 -0.09482635 30.66355316 -0.09336853 29.70744324 C-0.08776937 26.74242942 -0.07521704 23.77749101 -0.0625 20.8125 C-0.05748489 18.80273547 -0.052922 16.79296975 -0.04882812 14.78320312 C-0.03780021 9.85543968 -0.02053617 4.92773263 0 0 Z " fill="#FEF5C8" transform="translate(192,206)"/>
<path d="M0 0 C2.97 0.495 2.97 0.495 6 1 C6 4.63 6 8.26 6 12 C3.03 11.505 3.03 11.505 0 11 C0 9.68 0 8.36 0 7 C-1.32 7 -2.64 7 -4 7 C-4 8.32 -4 9.64 -4 11 C-4.66 11 -5.32 11 -6 11 C-6 8.03 -6 5.06 -6 2 C-5.34 2 -4.68 2 -4 2 C-4 3.32 -4 4.64 -4 6 C-2.68 6 -1.36 6 0 6 C0 4.02 0 2.04 0 0 Z " fill="#F6E9C0" transform="translate(222,261)"/>
<path d="M0 0 C2.4375 1.0625 2.4375 1.0625 4 2 C4 4.64 4 7.28 4 10 C4.66 10.33 5.32 10.66 6 11 C5.01 11 4.02 11 3 11 C2.67 9.02 2.34 7.04 2 5 C-0.97 4.505 -0.97 4.505 -4 4 C-4 6.31 -4 8.62 -4 11 C-4.99 11 -5.98 11 -7 11 C-7 8.03 -7 5.06 -7 2 C-7.66 2 -8.32 2 -9 2 C-9 1.34 -9 0.68 -9 0 C-5.88094953 -1.55952523 -3.35318513 -0.6359489 0 0 Z " fill="#FDFAE1" transform="translate(238,262)"/>
<path d="M0 0 C1.32 0 2.64 0 4 0 C4 2.64 4 5.28 4 8 C6.64 7.67 9.28 7.34 12 7 C12 7.66 12 8.32 12 9 C14.97 9.495 14.97 9.495 18 10 C18 10.33 18 10.66 18 11 C12.72 11 7.44 11 2 11 C2 10.34 2 9.68 2 9 C0.68 8.67 -0.64 8.34 -2 8 C-1.34 8 -0.68 8 0 8 C0 5.36 0 2.72 0 0 Z M18 8 C18.99 8.33 19.98 8.66 21 9 C20.01 9.33 19.02 9.66 18 10 C18 9.34 18 8.68 18 8 Z " fill="#FDFDEC" transform="translate(244,265)"/>
<path d="M0 0 C6.27 0 12.54 0 19 0 C21.93175048 6.29464074 24.71690573 12.62328005 27.3125 19.0625 C27.57885254 19.71742432 27.84520508 20.37234863 28.11962891 21.04711914 C30 25.75792407 30 25.75792407 30 28 C29.34 28 28.68 28 28 28 C25.17157622 22.01894577 22.54865345 16.1313212 20.67578125 9.77734375 C20.05655584 7.78346268 20.05655584 7.78346268 18 6 C17.875 3.375 17.875 3.375 18 1 C16.86820313 1.09539062 15.73640625 1.19078125 14.5703125 1.2890625 C13.08858388 1.40159885 11.60681055 1.51354758 10.125 1.625 C9.37863281 1.68945312 8.63226563 1.75390625 7.86328125 1.8203125 C5.9129953 1.96087365 3.95530533 1.98759849 2 2 C1.34 1.34 0.68 0.68 0 0 Z " fill="#E7C43A" transform="translate(185,200)"/>
<path d="M0 0 C1.98 0 3.96 0 6 0 C6.33 1.98 6.66 3.96 7 6 C7.66 4.35 8.32 2.7 9 1 C9.33 1 9.66 1 10 1 C10.125 7.625 10.125 7.625 9 11 C8.01 11 7.02 11 6 11 C6 9.68 6 8.36 6 7 C5.34 7 4.68 7 4 7 C3.67 7.99 3.34 8.98 3 10 C2.34 10 1.68 10 1 10 C0.67 6.7 0.34 3.4 0 0 Z " fill="#F2E2A7" transform="translate(262,262)"/>
<path d="M0 0 C2.125 2 2.125 2 4 5 C3.76742703 9.2693753 2.35158797 12.47261805 0 16 C-1.65 12.04 -3.3 8.08 -5 4 C-4.01 3.67 -3.02 3.34 -2 3 C-1.34 2.01 -0.68 1.02 0 0 Z " fill="#FDFBEE" transform="translate(219,221)"/>
<path d="M0 0 C1.65 0 3.3 0 5 0 C5 0.66 5 1.32 5 2 C11.93 2 18.86 2 26 2 C26 2.66 26 3.32 26 4 C18.49366731 7.75316635 8.00700947 5.82743341 0 5 C0 3.35 0 1.7 0 0 Z " fill="#FBF0C2" transform="translate(226,251)"/>
<path d="M0 0 C1.32 0.33 2.64 0.66 4 1 C4.3697479 6.54621849 4.3697479 6.54621849 2.625 8.6875 C2.08875 9.120625 1.5525 9.55375 1 10 C0.01 11.485 0.01 11.485 -1 13 C-3 12 -3 12 -3.875 9.875 C-4.05899297 5.6431616 -2.28005659 3.52372382 0 0 Z " fill="#F7BD11" transform="translate(215,237)"/>
<path d="M0 0 C2.77594421 4.16391631 4.53885022 8.65727544 6.5 13.25 C6.90347656 14.17941406 7.30695313 15.10882813 7.72265625 16.06640625 C9.83390085 20.99264365 11.67942899 25.80384017 13 31 C12.34 31.33 11.68 31.66 11 32 C10.59007812 30.85660156 10.18015625 29.71320313 9.7578125 28.53515625 C9.21391748 27.04413369 8.66962611 25.55325567 8.125 24.0625 C7.85558594 23.30775391 7.58617187 22.55300781 7.30859375 21.77539062 C6.08380586 17.64902908 6.08380586 17.64902908 3 15 C3 13.35 3 11.7 3 10 C2.01 10 1.02 10 0 10 C0 6.7 0 3.4 0 0 Z " fill="#FDF2C0" transform="translate(196,214)"/>
<path d="M0 0 C1.21236328 0.01353516 1.21236328 0.01353516 2.44921875 0.02734375 C3.37154297 0.04474609 3.37154297 0.04474609 4.3125 0.0625 C3.3225 0.3925 2.3325 0.7225 1.3125 1.0625 C1.3125 2.3825 1.3125 3.7025 1.3125 5.0625 C0.3225 5.0625 -0.6675 5.0625 -1.6875 5.0625 C-1.6875 4.0725 -1.6875 3.0825 -1.6875 2.0625 C-2.6775 2.0625 -3.6675 2.0625 -4.6875 2.0625 C-5.0175 4.0425 -5.3475 6.0225 -5.6875 8.0625 C-4.3675 8.0625 -3.0475 8.0625 -1.6875 8.0625 C-1.3575 9.0525 -1.0275 10.0425 -0.6875 11.0625 C-2.6789056 11.44383299 -4.68029077 11.77575582 -6.6875 12.0625 C-7.6875 11.0625 -7.6875 11.0625 -7.78515625 8.77734375 C-7.77355469 7.86082031 -7.76195312 6.94429688 -7.75 6 C-7.74097656 5.08089844 -7.73195313 4.16179687 -7.72265625 3.21484375 C-7.71105469 2.50457031 -7.69945312 1.79429687 -7.6875 1.0625 C-4.80538698 0.10179566 -2.98899956 -0.04331883 0 0 Z " fill="#FCF7D9" transform="translate(279.6875,261.9375)"/>
<path d="M0 0 C0.33 0.99 0.66 1.98 1 3 C0.34 3 -0.32 3 -1 3 C-1 5.97 -1 8.94 -1 12 C-0.34 12 0.32 12 1 12 C1 10.68 1 9.36 1 8 C1.66 8 2.32 8 3 8 C2.67 9.65 2.34 11.3 2 13 C-0.31 13 -2.62 13 -5 13 C-4.34 12.67 -3.68 12.34 -3 12 C-3 9.36 -3 6.72 -3 4 C-6.71736641 3.65099442 -6.71736641 3.65099442 -9.8125 5.5 C-10.204375 5.995 -10.59625 6.49 -11 7 C-10.67 5.35 -10.34 3.7 -10 2 C-6.7 1.34 -3.4 0.68 0 0 Z " fill="#FDF9D7" transform="translate(217,260)"/>
<path d="M0 0 C0.33 0 0.66 0 1 0 C1 14.19 1 28.38 1 43 C0.67 43 0.34 43 0 43 C0 30.79 0 18.58 0 6 C-0.66 6 -1.32 6 -2 6 C-1.34 4.02 -0.68 2.04 0 0 Z " fill="#FEFBBD" transform="translate(232,208)"/>
<path d="M0 0 C0.66 0 1.32 0 2 0 C2 12.54 2 25.08 2 38 C1.67 38 1.34 38 1 38 C0.67 27.11 0.34 16.22 0 5 C-0.99 5.495 -0.99 5.495 -2 6 C-1.34 4.02 -0.68 2.04 0 0 Z " fill="#FFFBE1" transform="translate(230,214)"/>
<path d="M0 0 C0.99 0.495 0.99 0.495 2 1 C2.625 4.0625 2.625 4.0625 3 7 C3.66 6.67 4.32 6.34 5 6 C4.34 9.3 3.68 12.6 3 16 C2.01 16.33 1.02 16.66 0 17 C0 11.39 0 5.78 0 0 Z " fill="#EDCD5D" transform="translate(256,202)"/>
<path d="M0 0 C0.33 0 0.66 0 1 0 C1.3403125 1.3303125 1.3403125 1.3303125 1.6875 2.6875 C3.17427787 6.43984415 5.14173187 8.21694945 8 11 C8 11.99 8 12.98 8 14 C3.05 14 -1.9 14 -7 14 C-7 13.67 -7 13.34 -7 13 C-1.555 12.505 -1.555 12.505 4 12 C3.01 11.34 2.02 10.68 1 10 C-0.1577506 6.52674819 -0.06866652 3.63932552 0 0 Z " fill="#FAEDB5" transform="translate(192,241)"/>
<path d="M0 0 C2.64 0 5.28 0 8 0 C7.67 1.32 7.34 2.64 7 4 C6.34 4 5.68 4 5 4 C5 4.99 5 5.98 5 7 C3.68 7.99 2.36 8.98 1 10 C0.67 6.7 0.34 3.4 0 0 Z " fill="#F2BE13" transform="translate(257,201)"/>
<path d="M0 0 C0.66 0 1.32 0 2 0 C2 1.32 2 2.64 2 4 C3.32 4 4.64 4 6 4 C6 2.68 6 1.36 6 0 C6.66 0 7.32 0 8 0 C8 2.97 8 5.94 8 9 C7.34 9 6.68 9 6 9 C6 7.68 6 6.36 6 5 C4.68 5 3.36 5 2 5 C2 6.32 2 7.64 2 9 C1.34 9 0.68 9 0 9 C0 6.03 0 3.06 0 0 Z " fill="#F0D68E" transform="translate(216,263)"/>
<path d="M0 0 C3 1 3 1 5 3 C5.33 2.01 5.66 1.02 6 0 C6.66 0 7.32 0 8 0 C8 2.64 8 5.28 8 8 C7.34 7.34 6.68 6.68 6 6 C5.34 6.66 4.68 7.32 4 8 C3.67 7.34 3.34 6.68 3 6 C2.67 6.66 2.34 7.32 2 8 C1.34 8 0.68 8 0 8 C0 5.36 0 2.72 0 0 Z " fill="#E5D284" transform="translate(196,264)"/>
<path d="M0 0 C2 3 2 3 3 5.625 C3.76047262 8.15139938 3.76047262 8.15139938 6 9 C6.33 8.01 6.66 7.02 7 6 C6.67 7.98 6.34 9.96 6 12 C3.36 12.33 0.72 12.66 -2 13 C-2.33 12.01 -2.66 11.02 -3 10 C-2.34 9.67 -1.68 9.34 -1 9 C-1 9.66 -1 10.32 -1 11 C-0.01 11 0.98 11 2 11 C1.67 9.9275 1.34 8.855 1 7.75 C0 4 0 4 0 0 Z " fill="#FCF6D4" transform="translate(209,245)"/>
<path d="M0 0 C0.66 0.99 1.32 1.98 2 3 C1.4609375 5.12890625 1.4609375 5.12890625 0.375 7.5625 C-0.00398437 8.43777344 -0.38296875 9.31304687 -0.7734375 10.21484375 C-1.17820313 11.13394531 -1.58296875 12.05304688 -2 13 C-2.75700242 14.87218384 -3.50737493 16.74706683 -4.25 18.625 C-4.83333333 20.08333333 -5.41666667 21.54166667 -6 23 C-7.16514544 19.6092579 -6.84338928 17.76880023 -5.56640625 14.453125 C-5.24736328 13.60878906 -4.92832031 12.76445312 -4.59960938 11.89453125 C-4.08624023 10.58548828 -4.08624023 10.58548828 -3.5625 9.25 C-3.22412109 8.36183594 -2.88574219 7.47367188 -2.53710938 6.55859375 C-1.70109106 4.36846127 -0.85514209 2.18272086 0 0 Z " fill="#E4C971" transform="translate(227,215)"/>
<path d="M0 0 C0.86625 0.4125 1.7325 0.825 2.625 1.25 C2.295 2.9 1.965 4.55 1.625 6.25 C-0.025 4.6 -1.675 2.95 -3.375 1.25 C-3.705 2.57 -4.035 3.89 -4.375 5.25 C-6.025 5.58 -7.675 5.91 -9.375 6.25 C-9.375 5.26 -9.375 4.27 -9.375 3.25 C-4.54046763 -1.00899281 -4.54046763 -1.00899281 0 0 Z " fill="#F9F3DA" transform="translate(199.375,262.75)"/>
<path d="M0 0 C2.31 0 4.62 0 7 0 C7 3.3 7 6.6 7 10 C6.01 10.495 6.01 10.495 5 11 C4.80664062 10.45730469 4.61328125 9.91460937 4.4140625 9.35546875 C4.15367187 8.64003906 3.89328125 7.92460937 3.625 7.1875 C3.36976563 6.47980469 3.11453125 5.77210938 2.8515625 5.04296875 C1.9734231 2.75226641 1.9734231 2.75226641 0 0 Z " fill="#F8BC12" transform="translate(296,201)"/>
<path d="M0 0 C2.31 0 4.62 0 7 0 C6.34 3.3 5.68 6.6 5 10 C4.01 10 3.02 10 2 10 C2 7.03 2 4.06 2 1 C1.34 0.67 0.68 0.34 0 0 Z " fill="#ECE0B5" transform="translate(229,263)"/>
<path d="M0 0 C0.33 0 0.66 0 1 0 C1.02690844 2.62506802 1.04679404 5.24986173 1.0625 7.875 C1.07087891 8.62136719 1.07925781 9.36773437 1.08789062 10.13671875 C1.11328125 15.7734375 1.11328125 15.7734375 0 18 C1.32 18.33 2.64 18.66 4 19 C0.04 19 -3.92 19 -8 19 C-6 18 -4 17 -2 16 C-0.89485234 12.68455701 -0.67892369 9.79589889 -0.4375 6.3125 C-0.35371094 5.13300781 -0.26992188 3.95351562 -0.18359375 2.73828125 C-0.12300781 1.83464844 -0.06242187 0.93101562 0 0 Z " fill="#E8C347" transform="translate(274,235)"/>
<path d="M0 0 C1.15371094 0.10957031 2.30742187 0.21914062 3.49609375 0.33203125 C5.23052734 0.47705078 5.23052734 0.47705078 7 0.625 C9.93359375 1.14453125 9.93359375 1.14453125 11.93359375 3.14453125 C5.99359375 3.14453125 0.05359375 3.14453125 -6.06640625 3.14453125 C-3.06640625 0.14453125 -3.06640625 0.14453125 0 0 Z " fill="#FDFDEE" transform="translate(287.06640625,195.85546875)"/>
<path d="M0 0 C3.3556206 2.2370804 3.19278041 2.42517038 4 6 C4.66 6.33 5.32 6.66 6 7 C7.1577506 10.47325181 7.06866652 13.36067448 7 17 C4.55213773 14.55213773 3.69919356 12.25682658 2.375 9.0625 C1.70597656 7.47115234 1.70597656 7.47115234 1.0234375 5.84765625 C0 3 0 3 0 0 Z " fill="#EDBD2B" transform="translate(194,207)"/>
<path d="M0 0 C0.33 0 0.66 0 1 0 C1 1.65 1 3.3 1 5 C1.89203125 4.90460938 2.7840625 4.80921875 3.703125 4.7109375 C5.45882812 4.54464844 5.45882812 4.54464844 7.25 4.375 C8.41015625 4.25898438 9.5703125 4.14296875 10.765625 4.0234375 C14 4 14 4 18 6 C10.08 6 2.16 6 -6 6 C-4.68 5.34 -3.36 4.68 -2 4 C-0.73195434 1.9664052 -0.73195434 1.9664052 0 0 Z " fill="#E7BB42" transform="translate(233,248)"/>
<path d="M0 0 C0.99 0 1.98 0 3 0 C3.66 2.97 4.32 5.94 5 9 C4.34 8.67 3.68 8.34 3 8 C3 7.34 3 6.68 3 6 C1.68 6 0.36 6 -1 6 C-1.33 6.66 -1.66 7.32 -2 8 C-1.125 2.25 -1.125 2.25 0 0 Z " fill="#E9D58B" transform="translate(275,264)"/>
<path d="M0 0 C1.25127906 3.54667178 0.72285053 5.72253438 -0.4375 9.25 C-0.72496094 10.14203125 -1.01242188 11.0340625 -1.30859375 11.953125 C-1.53675781 12.62859375 -1.76492187 13.3040625 -2 14 C-2.66 14 -3.32 14 -4 14 C-4 15.65 -4 17.3 -4 19 C-4.66 18.67 -5.32 18.34 -6 18 C-4.23536928 11.89262558 -2.30442525 5.92566493 0 0 Z " fill="#FEF6CA" transform="translate(227,220)"/>
<path d="M0 0 C0.33 0 0.66 0 1 0 C1 3.96 1 7.92 1 12 C0.34 12 -0.32 12 -1 12 C-1.99 8.7 -2.98 5.4 -4 2 C-3.34 1.67 -2.68 1.34 -2 1 C-1.67 1.99 -1.34 2.98 -1 4 C-0.67 2.68 -0.34 1.36 0 0 Z " fill="#EBC955" transform="translate(303,207)"/>
<path d="M0 0 C1.65 0 3.3 0 5 0 C3.515 1.98 3.515 1.98 2 4 C2.66 4.33 3.32 4.66 4 5 C3.34 5 2.68 5 2 5 C2 6.32 2 7.64 2 9 C2.99 9.33 3.98 9.66 5 10 C3.35 10 1.7 10 0 10 C0 6.7 0 3.4 0 0 Z " fill="#E5D390" transform="translate(248,263)"/>
<path d="M0 0 C-0.33 0.99 -0.66 1.98 -1 3 C-2.65 2.67 -4.3 2.34 -6 2 C-6.33 2.99 -6.66 3.98 -7 5 C-7.99 5 -8.98 5 -10 5 C-10 5.66 -10 6.32 -10 7 C-10.66 7 -11.32 7 -12 7 C-12 6.01 -12 5.02 -12 4 C-10.68 3.67 -9.36 3.34 -8 3 C-8 2.34 -8 1.68 -8 1 C-5.07175348 0.02391783 -3.04386724 -0.08226668 0 0 Z " fill="#FEEFB8" transform="translate(274,201)"/>
<path d="M0 0 C0.99 0 1.98 0 3 0 C2.27991594 4.60853797 0.68704061 8.67237409 -1 13 C-1.33 13 -1.66 13 -2 13 C-2.19294408 8.17639811 -1.75747614 4.50353262 0 0 Z " fill="#FEF9CA" transform="translate(230,200)"/>
<path d="M0 0 C4.29 0.33 8.58 0.66 13 1 C10.48528134 3.51471866 8.43183318 4.15955106 5 5 C4.01 4.34 3.02 3.68 2 3 C2 2.34 2 1.68 2 1 C1.34 0.67 0.68 0.34 0 0 Z " fill="#FEFDEA" transform="translate(205,272)"/>
<path d="M0 0 C0.99 0 1.98 0 3 0 C3.66 2.31 4.32 4.62 5 7 C4.01 6.67 3.02 6.34 2 6 C1.67 6.99 1.34 7.98 1 9 C-0.4783226 6.04335481 -0.06032783 3.25770263 0 0 Z " fill="#EED797" transform="translate(281,263)"/>
<path d="M0 0 C0.33 0.66 0.66 1.32 1 2 C2.32 1.67 3.64 1.34 5 1 C5 3.31 5 5.62 5 8 C4.34 8 3.68 8 3 8 C2.34 7.01 1.68 6.02 1 5 C0.67 5 0.34 5 0 5 C0 3.35 0 1.7 0 0 Z " fill="#F9F6E3" transform="translate(293,264)"/>
<path d="M0 0 C1 2 1 2 0.0625 5.125 C-0.288125 6.07375 -0.63875 7.0225 -1 8 C-1.99 7.67 -2.98 7.34 -4 7 C-5.1875 3.9375 -5.1875 3.9375 -6 1 C-5.34 1 -4.68 1 -4 1 C-4 1.66 -4 2.32 -4 3 C-3.34 3 -2.68 3 -2 3 C-1.34 2.01 -0.68 1.02 0 0 Z " fill="#E7C03B" transform="translate(216,246)"/>
<path d="M0 0 C0.33 0 0.66 0 1 0 C1.125 6.625 1.125 6.625 0 10 C-0.99 10 -1.98 10 -3 10 C-3.125 7.625 -3.125 7.625 -3 5 C-2.34 4.34 -1.68 3.68 -1 3 C-0.67 2.01 -0.34 1.02 0 0 Z " fill="#EBD491" transform="translate(271,263)"/>
<path d="M0 0 C3.63 0 7.26 0 11 0 C10.67 0.99 10.34 1.98 10 3 C6.08393425 2.46599103 3.60661066 1.80330533 0 0 Z " fill="#FEFCE6" transform="translate(265,255)"/>
<path d="M0 0 C2.97 0 5.94 0 9 0 C8.01 0.33 7.02 0.66 6 1 C6 2.32 6 3.64 6 5 C5.01 5 4.02 5 3 5 C3 3.68 3 2.36 3 1 C2.01 0.67 1.02 0.34 0 0 Z " fill="#FEFDE4" transform="translate(275,262)"/>
<path d="M0 0 C0.99 0.495 0.99 0.495 2 1 C2.73075648 3.3140622 3.40138258 5.64828869 4 8 C3.01 7.67 2.02 7.34 1 7 C0.67 7.99 0.34 8.98 0 10 C0 6.7 0 3.4 0 0 Z " fill="#FEF1B2" transform="translate(192,206)"/>
<path d="M0 0 C0.99 0.33 1.98 0.66 3 1 C3.33 1.99 3.66 2.98 4 4 C3.34 4 2.68 4 2 4 C2 5.32 2 6.64 2 8 C1.34 8 0.68 8 0 8 C0 5.36 0 2.72 0 0 Z " fill="#F1DA92" transform="translate(196,264)"/>
<path d="M0 0 C1.98 0 3.96 0 6 0 C6 0.99 6 1.98 6 3 C4.35 3.33 2.7 3.66 1 4 C0.67 2.68 0.34 1.36 0 0 Z " fill="#F8BC13" transform="translate(190,201)"/>
<path d="M0 0 C0.99 0 1.98 0 3 0 C3 1.65 3 3.3 3 5 C1.68 5 0.36 5 -1 5 C-0.67 3.35 -0.34 1.7 0 0 Z " fill="#FFF9E9" transform="translate(209,265)"/>
<path d="M0 0 C0.33 0 0.66 0 1 0 C1.125 5.75 1.125 5.75 0 8 C-1.32 8 -2.64 8 -4 8 C-4 7.01 -4 6.02 -4 5 C-2.68 5 -1.36 5 0 5 C0 3.35 0 1.7 0 0 Z " fill="#F1E7B2" transform="translate(212,265)"/>
<path d="M0 0 C0.33 0.66 0.66 1.32 1 2 C2.32 1.34 3.64 0.68 5 0 C4.34 2.31 3.68 4.62 3 7 C2.34 6.67 1.68 6.34 1 6 C0.375 2.9375 0.375 2.9375 0 0 Z " fill="#FCF9B5" transform="translate(217,230)"/>
</svg>
